<svg id="Layer_1" data-name="Layer 1" xmlns="http://www.w3.org/2000/svg" width="162.01" height="35.93" viewBox="0 0 162.01 35.93">
  <defs>
    <style>
      .cls-1 {
        fill: #fff;
      }

      .cls-2 {
        fill: #fa0;
      }
    </style>
  </defs>
  <path d="M45.19,20.05A8,8,0,0,1,48.85,9.32L65.6,1.1A8,8,0,0,1,76.33,4.76l8.22,16.76"/>
  <path d="M85.26,16.84a8,8,0,0,1-4,10.61l-17,7.75a8,8,0,0,1-10.61-4L46,14.25"/>
  <rect x="0.72" y="5.73" width="160.65" height="24.25" rx="12.12"/>
  <g>
    <path class="cls-1" d="M15.62,22.86a6.68,6.68,0,0,1-2.87.58,4.74,4.74,0,0,1-5-5.09,5.07,5.07,0,0,1,5.36-5.29,6,6,0,0,1,2.51.52L15.25,15a4.21,4.21,0,0,0-2.1-.48,3.45,3.45,0,0,0-3.52,3.77A3.41,3.41,0,0,0,13.08,22a5.14,5.14,0,0,0,2.23-.5Z"/>
    <path class="cls-1" d="M26.63,18.17c0,3.68-2.55,5.29-5,5.29-2.7,0-4.77-2-4.77-5.13C16.9,15,19.08,13,21.84,13S26.63,15.12,26.63,18.17Zm-7.9.1c0,2.18,1.25,3.83,3,3.83s3-1.63,3-3.87c0-1.69-.85-3.83-3-3.83S18.73,16.38,18.73,18.27Z"/>
    <path class="cls-1" d="M37.52,8.62v12c0,.88,0,1.89.09,2.57H36L35.9,21.5h0a3.7,3.7,0,0,1-3.4,2c-2.41,0-4.26-2-4.26-5.07,0-3.31,2-5.35,4.47-5.35a3.31,3.31,0,0,1,3,1.53h0v-6Zm-1.81,8.7a3.33,3.33,0,0,0-.08-.76A2.66,2.66,0,0,0,33,14.46c-1.88,0-3,1.65-3,3.85C30,20.33,31,22,33,22a2.73,2.73,0,0,0,2.65-2.17,3.17,3.17,0,0,0,.08-.78Z"/>
    <path class="cls-1" d="M41.54,18.58A3.2,3.2,0,0,0,45,22a6.51,6.51,0,0,0,2.76-.52l.31,1.3a8.05,8.05,0,0,1-3.32.62c-3.06,0-4.9-2-4.9-5S41.58,13,44.49,13c3.25,0,4.11,2.86,4.11,4.69a7.07,7.07,0,0,1-.06.85Zm5.31-1.3c0-1.15-.47-2.94-2.51-2.94-1.83,0-2.63,1.69-2.78,2.94Z"/>
    <path class="cls-2" d="M50.54,16.89l9.9-4.59v2.18L53,17.76v0l7.49,3.25v2.18l-9.9-4.57Z"/>
    <path class="cls-2" d="M62,24.05l4.4-14.92h2.08L64,24.05Z"/>
    <path class="cls-2" d="M79.51,18.72l-9.9,4.51V21.07l7.66-3.27v0l-7.66-3.28V12.3l9.9,4.53Z"/>
    <path class="cls-1" d="M82,21.38a4.79,4.79,0,0,0,2.39.72c1.32,0,1.94-.66,1.94-1.48s-.52-1.34-1.86-1.84c-1.79-.63-2.63-1.62-2.63-2.82,0-1.6,1.3-2.92,3.44-2.92a5,5,0,0,1,2.45.62L87.23,15a3.83,3.83,0,0,0-2-.58c-1.08,0-1.67.62-1.67,1.36s.59,1.19,1.89,1.69c1.73.66,2.62,1.52,2.62,3,0,1.75-1.36,3-3.73,3a5.71,5.71,0,0,1-2.8-.68Z"/>
    <path class="cls-1" d="M90.36,8.62h1.82v6.21h0a3.35,3.35,0,0,1,1.29-1.27A3.76,3.76,0,0,1,95.37,13c1.33,0,3.48.82,3.48,4.26v5.93H97V17.51c0-1.61-.59-3-2.3-3a2.61,2.61,0,0,0-2.43,1.82,2.21,2.21,0,0,0-.12.86v6H90.36Z"/>
    <path class="cls-1" d="M107.31,23.23,107.17,22h-.07a3.69,3.69,0,0,1-3,1.48,2.84,2.84,0,0,1-3-2.86c0-2.41,2.14-3.73,6-3.71v-.2a2.06,2.06,0,0,0-2.26-2.31,5,5,0,0,0-2.6.74l-.41-1.19A6.14,6.14,0,0,1,105,13c3,0,3.79,2.08,3.79,4.08v3.72a13.35,13.35,0,0,0,.17,2.39ZM107,18.15c-2,0-4.22.31-4.22,2.24a1.6,1.6,0,0,0,1.71,1.73,2.47,2.47,0,0,0,2.41-1.67,1.9,1.9,0,0,0,.1-.57Z"/>
    <path class="cls-1" d="M111.72,16.52c0-1.28,0-2.3-.08-3.25h1.62l.08,1.71h0A3.9,3.9,0,0,1,116.93,13c2.4,0,4.22,2,4.22,5.07,0,3.58-2.19,5.35-4.53,5.35a3.5,3.5,0,0,1-3.07-1.57h0v5.42h-1.79Zm1.79,2.66a4.3,4.3,0,0,0,.08.74A2.8,2.8,0,0,0,116.31,22c1.91,0,3-1.57,3-3.85,0-2-1-3.71-3-3.71a2.89,2.89,0,0,0-2.74,2.25,2.94,2.94,0,0,0-.12.74Z"/>
    <path class="cls-1" d="M124.44,18.58A3.2,3.2,0,0,0,127.86,22a6.51,6.51,0,0,0,2.76-.52l.31,1.3a8.05,8.05,0,0,1-3.32.62c-3.06,0-4.9-2-4.9-5S124.48,13,127.39,13c3.25,0,4.11,2.86,4.11,4.69a7.07,7.07,0,0,1-.06.85Zm5.31-1.3c0-1.15-.47-2.94-2.51-2.94-1.83,0-2.63,1.69-2.78,2.94Z"/>
    <path class="cls-2" d="M142.09,20.51c0,1,0,1.94.08,2.72h-1.61l-.1-1.62h0a3.74,3.74,0,0,1-3.29,1.85c-1.57,0-3.44-.87-3.44-4.37V13.27h1.81v5.51c0,1.9.58,3.17,2.22,3.17a2.62,2.62,0,0,0,2.39-1.64,2.75,2.75,0,0,0,.17-.93V13.27h1.81Z"/>
    <path class="cls-2" d="M145.1,16.52c0-1.28,0-2.3-.09-3.25h1.63l.08,1.71h0A3.91,3.91,0,0,1,150.3,13c2.41,0,4.22,2,4.22,5.07,0,3.58-2.18,5.35-4.52,5.35a3.5,3.5,0,0,1-3.07-1.57h0v5.42H145.1Zm1.79,2.66a4.3,4.3,0,0,0,.08.74A2.8,2.8,0,0,0,149.69,22c1.91,0,3-1.57,3-3.85,0-2-1.05-3.71-3-3.71A2.89,2.89,0,0,0,147,16.73a2.94,2.94,0,0,0-.12.74Z"/>
  </g>
</svg>
